<svg width="15" height="16" viewBox="0 0 15 16" fill="none" xmlns="http://www.w3.org/2000/svg">
<path fill-rule="evenodd" clip-rule="evenodd" d="M2.67839 0.158979C3.13095 -0.152937 3.69144 0.0218609 3.9795 0.442358L5.90848 3.25819C6.20502 3.69106 6.16632 4.29334 5.81307 4.67798L4.57983 6.02079C4.58571 6.03557 4.59203 6.05123 4.59881 6.06773C4.66256 6.22297 4.76672 6.45347 4.92525 6.74407C5.24221 7.32506 5.77704 8.14725 6.64205 9.0891C7.5071 10.031 8.26163 10.6127 8.79386 10.957C9.06007 11.1292 9.27098 11.2421 9.41264 11.3111C9.42008 11.3147 9.42733 11.3182 9.43438 11.3216L10.6557 9.99192V9.99192C11.0138 9.60182 11.5874 9.55497 11.9966 9.88738L14.5827 11.9877C14.9711 12.3032 15.1167 12.8938 14.8425 13.3657C14.2799 14.3334 13.2751 15.4691 11.3332 15.9109C10.1072 16.1897 8.80023 15.7972 7.54671 15.0617C6.28911 14.3237 5.04699 13.2185 3.92948 12.0017C2.81168 10.7846 1.79762 9.43304 1.12109 8.06612C0.446364 6.70284 0.0907416 5.29001 0.344072 3.96948C0.747328 1.86749 1.78506 0.774672 2.67839 0.158979ZM9.51366 11.717C9.41104 12.0327 9.41077 12.0326 9.41077 12.0326L9.4098 12.0323L9.40808 12.0316L9.40318 12.0299C9.39928 12.0284 9.39409 12.0265 9.38765 12.024C9.37477 12.019 9.35688 12.0119 9.33421 12.0025C9.28885 11.9835 9.22435 11.9551 9.14249 11.9152C8.97873 11.8355 8.74559 11.7101 8.45725 11.5236C7.88037 11.1505 7.08378 10.5335 6.18079 9.55038C5.27788 8.56726 4.7119 7.70054 4.37002 7.07388C4.19914 6.76064 4.08438 6.50763 4.01156 6.33031C3.97516 6.24165 3.94924 6.17193 3.93204 6.12308C3.92344 6.09866 3.91702 6.07945 3.91255 6.0657C3.91032 6.05883 3.90858 6.05332 3.90729 6.0492L3.90571 6.04408L3.90518 6.04231L3.90497 6.04162C3.90497 6.04162 3.90481 6.04107 4.2098 5.94194L3.90481 6.04107C3.87022 5.92522 3.8987 5.79891 3.97916 5.7113L5.3518 4.21671C5.49054 4.06565 5.50819 3.82026 5.38873 3.64588L3.45974 0.830046C3.34042 0.655867 3.15364 0.630387 3.0305 0.715257C2.25537 1.24948 1.33511 2.19996 0.970532 4.10034C0.757048 5.21316 1.04785 6.46529 1.68874 7.76021C2.32783 9.05147 3.29858 10.3513 4.39074 11.5404C5.4832 12.73 6.67617 13.786 7.85987 14.4806C9.04764 15.1776 10.1882 15.489 11.1971 15.2595C12.9309 14.8651 13.8027 13.8688 14.2962 13.0199M9.51366 11.717L9.41077 12.0326C9.52825 12.0742 9.65844 12.0411 9.74428 11.9477L11.117 10.4531C11.2506 10.3075 11.4558 10.2929 11.6042 10.4135L14.1902 12.5138C14.348 12.6419 14.3863 12.8649 14.2962 13.0199" fill="#333333"/>
</svg>
