<svg width="41" height="40" viewBox="0 0 41 40" fill="none" xmlns="http://www.w3.org/2000/svg">
<g clip-path="url(#clip0_428_1472)">
<path fill-rule="evenodd" clip-rule="evenodd" d="M25.8174 3.22583H0.333496V30.9678H4.96954C4.94529 31.1586 4.93279 31.3532 4.93279 31.5506C4.93279 34.0793 6.98268 36.1292 9.51135 36.1292C12.04 36.1292 14.0899 34.0793 14.0899 31.5506C14.0899 31.3532 14.0774 31.1586 14.0532 30.9678H24.904C24.8682 31.1984 24.8496 31.4347 24.8496 31.6754C24.8496 34.204 26.8995 36.2539 29.4282 36.2539C31.9569 36.2539 34.0067 34.204 34.0067 31.6754C34.0067 31.4347 33.9882 31.1984 33.9524 30.9678H40.3335V16.4978L36.0111 9.31389H25.8174V3.22583ZM33.549 29.6774H39.0432V16.8561L35.2816 10.6042H25.8174V28.8599C26.6553 27.7867 27.9612 27.0968 29.4282 27.0968C31.2406 27.0968 32.807 28.1498 33.549 29.6774ZM9.51135 26.972C7.65005 26.972 6.04815 28.0827 5.33226 29.6774H1.62382V4.51615H24.527V29.6774H13.6904C12.9746 28.0827 11.3727 26.972 9.51135 26.972ZM35.1146 11.6232H29.3658V17.3221H37.9281L35.1146 11.6232ZM30.6561 16.0318V12.9135H34.3126L35.8521 16.0318H30.6561ZM2.85177 14.2975H18.2524V13.0072H2.85177V14.2975ZM19.5012 17.6276H7.84673V16.3373H19.5012V17.6276ZM2.85177 20.9574H18.2524V19.667H2.85177V20.9574ZM9.51135 28.2624C7.69531 28.2624 6.22311 29.7346 6.22311 31.5506C6.22311 33.3667 7.69531 34.8389 9.51135 34.8389C11.3274 34.8389 12.7996 33.3667 12.7996 31.5506C12.7996 29.7346 11.3274 28.2624 9.51135 28.2624ZM26.1399 31.6754C26.1399 29.8593 27.6121 28.3871 29.4282 28.3871C31.2442 28.3871 32.7164 29.8593 32.7164 31.6754C32.7164 33.4914 31.2442 34.9636 29.4282 34.9636C27.6121 34.9636 26.1399 33.4914 26.1399 31.6754Z" fill="#333333"/>
</g>
<defs>
<clipPath id="clip0_428_1472">
<rect width="40" height="40" fill="white" transform="translate(0.333496)"/>
</clipPath>
</defs>
</svg>
