<svg width="40" height="40" viewBox="0 0 40 40" fill="none" xmlns="http://www.w3.org/2000/svg">
<path fill-rule="evenodd" clip-rule="evenodd" d="M39.5317 9.8959L23.2674 3.22754L15.1425 6.44532L6.8385 9.56959V22.2015H8.14997V11.0335L22.6074 17.475V35.7124L13.6934 31.7506L13.1608 32.949L23.2558 37.4357L39.5317 30.5998V9.8959ZM9.22035 10.0747L15.3645 7.76302L29.3978 13.6976L23.2678 16.3335L9.22035 10.0747ZM23.9189 17.4811L30.4138 14.6883V17.3615H31.7253V14.1244L38.2202 11.3315V29.7282L23.9189 35.7348V17.4811ZM31.0674 12.9797L37.1825 10.3502L23.2589 4.64148L17.1093 7.07697L31.0674 12.9797Z" fill="#333333"/>
<path d="M0 24.8867H12.4902V23.5753H0V24.8867Z" fill="#333333"/>
<path d="M13.427 27.5411H4.0593V26.2296H13.427V27.5411Z" fill="#333333"/>
<path d="M0.15593 30.1954H12.3339V28.8839H0.15593V30.1954Z" fill="#333333"/>
</svg>
