<svg width="114" height="32" viewBox="0 0 114 32" fill="none" xmlns="http://www.w3.org/2000/svg">
<g clip-path="url(#clip0_428_1513)">
<g clip-path="url(#clip1_428_1513)">
<g clip-path="url(#clip2_428_1513)">
<path fill-rule="evenodd" clip-rule="evenodd" d="M17.6545 23.9751H12.7338C5.05748 23.9751 10.6343 7.99274 17.0968 7.99274H24.8716C26.1181 7.99274 28.3161 8.21788 29.3987 5.19502L31.0717 0.5H20.4101C14.6365 0.5 10.1422 2.49378 6.89455 5.83818C1.28493 11.5622 -0.617746 20.5021 0.727251 24.7791C2.00664 28.7344 5.48395 31.3392 10.9295 31.4036L15.1614 31.4357H20.3773L21.6567 27.6733C22.608 25.0042 20.4757 23.9751 17.6545 23.9751ZM77.5561 17.3506L79.1633 12.2376H62.0065C59.1526 12.2376 57.8731 13.0094 57.3811 14.6172L55.7737 19.7303H72.9305C75.7845 19.7303 77.0639 18.9585 77.5561 17.3506ZM53.2149 26.3548L51.6074 31.4678H68.7643C71.5856 31.4678 72.8977 30.696 73.3898 29.0882L74.9973 23.9751H57.8404C55.0192 23.9751 53.7397 24.7469 53.2149 26.3548ZM81.5581 5.64523L83.1659 0.532157H66.0087C63.1548 0.532157 61.8753 1.30394 61.3833 2.91183L59.7759 8.0249H76.9328C79.7543 8.0249 81.0332 7.25312 81.5581 5.64523ZM55.6425 6.67428C54.9207 1.91494 52.3291 0.532157 46.0306 0.532157H34.549L27.8568 19.7303H32.0886C34.6146 19.7303 35.894 19.7625 37.239 16.2251L40.0274 7.99274H44.292C47.9333 7.99274 47.1132 12.4627 45.2761 16.8039C43.6359 20.6307 40.7819 24.0073 37.3373 24.0073H30.2188C27.3647 24.0073 26.0526 24.7791 25.5276 26.387L23.7562 31.5H28.9722L34.0897 31.4678C38.6168 31.4357 42.3237 31.1141 46.6539 27.2874C51.2466 23.2033 56.561 12.7199 55.6425 6.67428ZM113.313 0.5H103.373L94.0242 10.2438C92.9413 11.3693 91.8261 12.4948 90.7432 13.8133H90.6448L95.303 0.5H87.2009L76.2766 31.4678H84.3795L87.8564 21.7241L91.4648 18.7334L94.3193 27.5446C95.2047 30.278 96.1239 31.4678 98.0922 31.4678H104.292L97.9277 14.167L113.313 0.5Z" fill="#C5C5C5"/>
</g>
</g>
</g>
<defs>
<clipPath id="clip0_428_1513">
<rect width="113" height="31" fill="white" transform="translate(0.313477 0.5)"/>
</clipPath>
<clipPath id="clip1_428_1513">
<rect width="113" height="31" fill="white" transform="translate(0.313477 0.5)"/>
</clipPath>
<clipPath id="clip2_428_1513">
<rect width="113" height="31" fill="white" transform="translate(0.313477 0.5)"/>
</clipPath>
</defs>
</svg>
