<svg width="156" height="32" viewBox="0 0 156 32" fill="none" xmlns="http://www.w3.org/2000/svg">
<g clip-path="url(#clip0_428_1486)">
<g clip-path="url(#clip1_428_1486)">
<g clip-path="url(#clip2_428_1486)">
<path d="M14.6651 29.1154C22.7644 29.1154 29.3302 22.7096 29.3302 14.8077C29.3302 6.90577 22.7644 0.5 14.6651 0.5C6.56579 0.5 0 6.90577 0 14.8077C0 22.7096 6.56579 29.1154 14.6651 29.1154Z" fill="#C5C5C5"/>
<path d="M16.6206 8.60763H15.2763C12.771 8.60763 11.4878 9.85954 11.4878 11.648C11.4878 13.6749 12.4043 14.6288 14.2375 15.8807L15.7651 16.8942L11.3656 23.3326H8.06592L12.0377 17.6095C9.77685 15.9999 8.49365 14.4499 8.49365 11.8865C8.49365 8.60763 10.8156 6.40186 15.2763 6.40186H19.6758V23.3922H16.6206V8.60763Z" fill="white"/>
<path d="M39.4123 29.9501V25.4789H50.4722V29.9501H54.0774V22.5578H51.9998V3.95776H39.1679L38.8623 12.8405C38.679 17.9078 38.3124 20.8885 37.2736 22.5578H35.8682V29.9501H39.4123ZM42.2231 13.3174L42.4675 6.87892H48.2113V22.5578H40.8788C41.5509 21.0674 42.0398 18.3847 42.2231 13.3174ZM62.2654 9.56161C58.1103 9.56161 55.2384 12.4231 55.2384 17.6693C55.2384 22.8558 58.1103 25.777 62.2654 25.777C66.4205 25.777 69.3535 22.9155 69.3535 17.6693C69.3535 12.4828 66.4205 9.56161 62.2654 9.56161ZM62.2654 22.8558C60.1878 22.8558 59.1491 21.2462 59.1491 17.6693C59.1491 14.0328 60.1878 12.4828 62.2654 12.4828C64.3429 12.4828 65.4428 14.0328 65.4428 17.6693C65.4428 21.3058 64.404 22.8558 62.2654 22.8558ZM78.7636 25.777C80.5357 25.777 81.7578 25.4789 82.6743 24.8231V21.8424C81.6966 22.4981 80.5968 22.9155 79.008 22.9155C76.3194 22.9155 75.2196 20.8885 75.2196 17.6693C75.2196 14.2712 76.5639 12.5424 79.0691 12.5424C80.5357 12.5424 81.9411 13.0193 82.7354 13.4962V10.3962C81.9411 9.97892 80.5357 9.68084 78.6414 9.68084C73.8142 9.68084 71.3089 13.0789 71.3089 17.7885C71.2478 22.9155 73.6919 25.777 78.7636 25.777ZM96.9117 12.7808V9.85969H84.263V12.7808H88.7237V25.4789H92.5122V12.7808H96.9117ZM110.11 14.8674C110.11 11.1116 108.155 9.68084 104.122 9.68084C101.617 9.68084 99.6614 10.4558 98.5004 11.1116V14.2116C99.5392 13.4962 101.739 12.6616 103.694 12.6616C105.528 12.6616 106.322 13.2578 106.322 14.927V15.8212H105.711C99.9058 15.8212 97.3394 17.6693 97.3394 20.8289C97.3394 23.9885 99.2948 25.777 102.228 25.777C104.428 25.777 105.405 25.0616 106.139 24.3462H106.322C106.383 24.7635 106.505 25.3001 106.628 25.5981H110.294C110.172 24.3462 110.11 23.0347 110.11 21.7828V14.8674ZM106.383 21.7828C105.894 22.4385 105.039 23.0347 103.694 23.0347C102.106 23.0347 101.311 22.0808 101.311 20.7097C101.311 18.8616 102.595 18.2058 105.833 18.2058H106.383V21.7828ZM119.459 25.4789C123.187 25.4789 125.448 23.9289 125.448 20.9481C125.448 18.9212 124.165 17.7289 122.026 17.3712C123.737 16.8943 124.837 15.702 124.837 13.8539C124.837 11.1712 123.004 9.85969 119.521 9.85969H113.166V25.4789H119.459ZM118.971 12.6616C120.315 12.6616 121.109 13.1981 121.109 14.3905C121.109 15.4635 120.315 16.1193 118.848 16.1193H116.954V12.6616H118.971ZM119.093 18.8616C120.682 18.8616 121.537 19.3981 121.537 20.7097C121.537 22.1405 120.559 22.677 119.093 22.677H117.015V18.8616H119.093ZM137.363 25.4789H141.64L135.591 17.0731L140.907 9.85969H137.119L131.803 17.0731V9.85969H128.014V25.4789H131.803V17.7885L137.363 25.4789ZM154.534 14.8674C154.534 11.1116 152.578 9.68084 148.545 9.68084C146.04 9.68084 144.085 10.4558 142.924 11.1116V14.2116C143.962 13.4962 146.162 12.6616 148.118 12.6616C149.951 12.6616 150.745 13.2578 150.745 14.927V15.8212H150.134C144.329 15.8212 141.763 17.6693 141.763 20.8289C141.763 23.9885 143.718 25.777 146.651 25.777C148.851 25.777 149.828 25.0616 150.562 24.3462H150.745C150.806 24.7635 150.928 25.3001 151.051 25.5981H154.717C154.595 24.3462 154.534 23.0347 154.534 21.7828V14.8674ZM150.745 21.7828C150.256 22.4385 149.401 23.0347 148.056 23.0347C146.468 23.0347 145.673 22.0808 145.673 20.7097C145.673 18.8616 146.957 18.2058 150.195 18.2058H150.745V21.7828Z" fill="#C5C5C5"/>
<path d="M39.4123 29.9501V25.4789H50.4722V29.9501H54.0774V22.5578H51.9998V3.95776H39.1679L38.8623 12.8405C38.679 17.9078 38.3124 20.8885 37.2736 22.5578H35.8682V29.9501H39.4123ZM42.2231 13.3174L42.4675 6.87892H48.2113V22.5578H40.8788C41.5509 21.0674 42.0398 18.3847 42.2231 13.3174ZM62.2654 9.56161C58.1103 9.56161 55.2384 12.4231 55.2384 17.6693C55.2384 22.8558 58.1103 25.777 62.2654 25.777C66.4205 25.777 69.3535 22.9155 69.3535 17.6693C69.3535 12.4828 66.4205 9.56161 62.2654 9.56161ZM62.2654 22.8558C60.1878 22.8558 59.1491 21.2462 59.1491 17.6693C59.1491 14.0328 60.1878 12.4828 62.2654 12.4828C64.3429 12.4828 65.4428 14.0328 65.4428 17.6693C65.4428 21.3058 64.404 22.8558 62.2654 22.8558ZM78.7636 25.777C80.5357 25.777 81.7578 25.4789 82.6743 24.8231V21.8424C81.6966 22.4981 80.5968 22.9155 79.008 22.9155C76.3194 22.9155 75.2196 20.8885 75.2196 17.6693C75.2196 14.2712 76.5639 12.5424 79.0691 12.5424C80.5357 12.5424 81.9411 13.0193 82.7354 13.4962V10.3962C81.9411 9.97892 80.5357 9.68084 78.6414 9.68084C73.8142 9.68084 71.3089 13.0789 71.3089 17.7885C71.2478 22.9155 73.6919 25.777 78.7636 25.777ZM96.9117 12.7808V9.85969H84.263V12.7808H88.7237V25.4789H92.5122V12.7808H96.9117ZM110.11 14.8674C110.11 11.1116 108.155 9.68084 104.122 9.68084C101.617 9.68084 99.6614 10.4558 98.5004 11.1116V14.2116C99.5392 13.4962 101.739 12.6616 103.694 12.6616C105.528 12.6616 106.322 13.2578 106.322 14.927V15.8212H105.711C99.9058 15.8212 97.3394 17.6693 97.3394 20.8289C97.3394 23.9885 99.2948 25.777 102.228 25.777C104.428 25.777 105.405 25.0616 106.139 24.3462H106.322C106.383 24.7635 106.505 25.3001 106.628 25.5981H110.294C110.172 24.3462 110.11 23.0347 110.11 21.7828V14.8674ZM106.383 21.7828C105.894 22.4385 105.039 23.0347 103.694 23.0347C102.106 23.0347 101.311 22.0808 101.311 20.7097C101.311 18.8616 102.595 18.2058 105.833 18.2058H106.383V21.7828ZM119.459 25.4789C123.187 25.4789 125.448 23.9289 125.448 20.9481C125.448 18.9212 124.165 17.7289 122.026 17.3712C123.737 16.8943 124.837 15.702 124.837 13.8539C124.837 11.1712 123.004 9.85969 119.521 9.85969H113.166V25.4789H119.459ZM118.971 12.6616C120.315 12.6616 121.109 13.1981 121.109 14.3905C121.109 15.4635 120.315 16.1193 118.848 16.1193H116.954V12.6616H118.971ZM119.093 18.8616C120.682 18.8616 121.537 19.3981 121.537 20.7097C121.537 22.1405 120.559 22.677 119.093 22.677H117.015V18.8616H119.093ZM137.363 25.4789H141.64L135.591 17.0731L140.907 9.85969H137.119L131.803 17.0731V9.85969H128.014V25.4789H131.803V17.7885L137.363 25.4789ZM154.534 14.8674C154.534 11.1116 152.578 9.68084 148.545 9.68084C146.04 9.68084 144.085 10.4558 142.924 11.1116V14.2116C143.962 13.4962 146.162 12.6616 148.118 12.6616C149.951 12.6616 150.745 13.2578 150.745 14.927V15.8212H150.134C144.329 15.8212 141.763 17.6693 141.763 20.8289C141.763 23.9885 143.718 25.777 146.651 25.777C148.851 25.777 149.828 25.0616 150.562 24.3462H150.745C150.806 24.7635 150.928 25.3001 151.051 25.5981H154.717C154.595 24.3462 154.534 23.0347 154.534 21.7828V14.8674ZM150.745 21.7828C150.256 22.4385 149.401 23.0347 148.056 23.0347C146.468 23.0347 145.673 22.0808 145.673 20.7097C145.673 18.8616 146.957 18.2058 150.195 18.2058H150.745V21.7828Z" fill="#C5C5C5"/>
</g>
</g>
</g>
<defs>
<clipPath id="clip0_428_1486">
<rect width="156" height="31" fill="white" transform="translate(0 0.5)"/>
</clipPath>
<clipPath id="clip1_428_1486">
<rect width="156" height="31" fill="white" transform="translate(0 0.5)"/>
</clipPath>
<clipPath id="clip2_428_1486">
<rect width="156" height="31" fill="white" transform="translate(0 0.5)"/>
</clipPath>
</defs>
</svg>
