<svg width="230" height="32" viewBox="0 0 230 32" fill="none" xmlns="http://www.w3.org/2000/svg">
<g clip-path="url(#clip0_428_1518)">
<g clip-path="url(#clip1_428_1518)">
<g clip-path="url(#clip2_428_1518)">
<mask id="mask0_428_1518" style="mask-type:luminance" maskUnits="userSpaceOnUse" x="0" y="0" width="230" height="32">
<path d="M229.654 0H0.970215V31.906H229.654V0Z" fill="white"/>
</mask>
<g mask="url(#mask0_428_1518)">
<path d="M19.9103 0.680664V31.4016H14.7951V5.09477H6.09531V31.4016H0.970215V0.680664H19.9103Z" fill="#C5C5C5"/>
<path d="M26.3691 30.187C24.8326 28.7777 23.7181 26.9691 23.1498 24.9631C22.3174 22.154 21.9309 19.2317 22.0044 16.3028C21.9334 13.2994 22.3196 10.3026 23.1498 7.41532C23.7137 5.35065 24.8262 3.47722 26.3691 1.99398C27.7215 0.83683 29.4428 0.200928 31.2227 0.200928C33.0025 0.200928 34.7238 0.83683 36.0762 1.99398C37.6173 3.45958 38.7244 5.32179 39.2757 7.37582C40.1004 10.2642 40.4866 13.2602 40.4212 16.2633C40.4955 19.2084 40.109 22.1472 39.2757 24.9729C38.7231 26.9783 37.6138 28.786 36.0762 30.187C34.7014 31.304 32.9841 31.9137 31.2128 31.9137C29.4415 31.9137 27.7241 31.304 26.3494 30.187H26.3691ZM27.6331 22.4252C27.8346 23.7417 28.3271 24.9967 29.0749 26.0987C29.3097 26.4562 29.627 26.7521 29.9998 26.9617C30.3726 27.1713 30.7902 27.2885 31.2177 27.3035C32.4817 27.3035 33.4791 26.3851 34.1802 24.5286C35.0464 21.8762 35.4343 19.0909 35.3257 16.3028C35.3566 14.1657 35.1914 12.0304 34.8319 9.92358C34.6136 8.55323 34.1089 7.24437 33.3507 6.08221C33.1244 5.70624 32.8083 5.3922 32.4309 5.16819C32.0536 4.94417 31.6265 4.81714 31.1881 4.79847C30.7575 4.82254 30.3395 4.95225 29.9709 5.17613C29.6024 5.40002 29.2947 5.71121 29.0749 6.08221C28.3267 7.25647 27.8354 8.57561 27.6331 9.95322C27.2574 12.0548 27.0854 14.1878 27.1196 16.3226C27.0863 18.3688 27.2584 20.4133 27.6331 22.4252Z" fill="#C5C5C5"/>
<path d="M54.4729 0.680664V12.4615H51.7672C50.7804 12.5029 49.7972 12.3171 48.8936 11.9183C48.1792 11.5426 47.6328 10.9114 47.3629 10.1507C46.9994 9.09745 46.8353 7.98568 46.8791 6.87226V0.680664H41.7638V6.87226C41.61 9.5515 42.4073 12.199 44.0154 14.3476C45.5163 16.158 47.758 17.0632 50.7402 17.0632H54.4729V31.4016H59.5981V0.680664H54.4729Z" fill="#C5C5C5"/>
<path d="M78.8728 5.09477H72.8491V31.4016H67.7536V5.09477H61.7397V0.680664H78.8728V5.09477Z" fill="#C5C5C5"/>
<path d="M86.155 0.680934H90.2532C91.9372 0.61465 93.6041 1.04752 95.043 1.92518C96.3094 2.77674 97.2924 3.98711 97.8671 5.40116C98.575 7.15308 99.0208 8.99978 99.1899 10.8817L101.58 31.4019H96.4649L94.7954 17.0635H86.155V31.4019H81.04V0.680934H86.155ZM86.155 12.6494H94.2924L94.055 10.8817C93.9653 9.74785 93.733 8.62984 93.3641 7.5539C93.1028 6.83103 92.5964 6.22286 91.932 5.83566C91.0704 5.42679 90.1199 5.24008 89.1669 5.29254H86.155V12.6494Z" fill="#C5C5C5"/>
<path d="M122.788 0.681074C124.495 0.640152 126.179 1.08168 127.647 1.95494C129.086 2.87079 130.206 4.209 130.856 5.78642C131.676 7.79309 132.066 9.94941 132.001 12.1163C132.049 14.1727 131.683 16.2177 130.925 18.1301C130.36 19.5883 129.456 20.8914 128.288 21.9319C127.479 22.6891 126.432 23.1397 125.326 23.2058C124.756 23.2424 124.185 23.1525 123.655 22.9425C123.123 22.7324 122.645 22.4076 122.255 21.9912V31.402H117.14V0.681074H122.788ZM122.561 16.6291C122.69 17.1773 122.951 17.6857 123.322 18.1104C123.443 18.2566 123.593 18.3759 123.763 18.4609C123.933 18.5459 124.119 18.5947 124.309 18.6041C124.755 18.5791 125.175 18.3849 125.484 18.061C125.955 17.5596 126.295 16.9487 126.471 16.2835C126.756 15.2618 126.886 14.2033 126.856 13.1432C126.856 10.273 126.508 8.24525 125.81 7.06029C125.515 6.51393 125.075 6.05968 124.538 5.74774C124.001 5.4358 123.389 5.27831 122.768 5.29268H122.255V14.1801C122.246 15.0066 122.349 15.8304 122.561 16.6291Z" fill="#C5C5C5"/>
<path d="M137.699 30.1878C136.159 28.7811 135.044 26.9716 134.48 24.9639C133.644 22.1554 133.253 19.233 133.324 16.3036C133.255 13.2996 133.644 10.3026 134.48 7.41611C135.038 5.34928 136.152 3.47457 137.699 1.99477C139.03 0.811536 140.756 0.170279 142.538 0.197529C144.326 0.167794 146.061 0.80496 147.406 1.98489C148.952 3.46 150.063 5.33219 150.615 7.39636C151.436 10.2854 151.819 13.2812 151.751 16.2838C151.822 19.2145 151.442 22.1386 150.625 24.954C150.069 26.9576 148.96 28.7643 147.426 30.168C146.043 31.323 144.289 31.9371 142.488 31.8961C140.739 31.914 139.041 31.3084 137.699 30.1878ZM138.953 22.426C139.164 23.74 139.655 24.9931 140.395 26.0995C140.63 26.4564 140.947 26.7519 141.32 26.9614C141.693 27.171 142.111 27.2885 142.538 27.3043C143.812 27.3043 144.799 26.3859 145.5 24.5294C146.35 21.874 146.72 19.0888 146.596 16.3036C146.629 14.166 146.461 12.0302 146.093 9.92431C145.9 8.56258 145.43 7.25492 144.71 6.083C144.498 5.69566 144.187 5.37245 143.807 5.14728C143.426 4.92212 142.994 4.8033 142.552 4.8033C142.111 4.8033 141.678 4.92212 141.298 5.14728C140.918 5.37245 140.606 5.69566 140.395 6.083C139.654 7.26087 139.163 8.57847 138.953 9.95394C138.586 12.0567 138.417 14.1891 138.449 16.3233C138.418 18.3691 138.587 20.413 138.953 22.426Z" fill="#C5C5C5"/>
<path d="M155.297 7.63294C156.556 5.3341 158.523 3.50232 160.905 2.40909C163.686 1.19403 166.699 0.604112 169.734 0.680969V5.29257C166.099 5.29257 163.314 6.21424 161.379 8.05752C159.404 9.89431 158.476 12.6494 158.476 16.3031C158.476 19.9569 159.463 22.4552 161.369 24.2031C163.275 25.951 166.079 26.82 169.734 26.82V31.4316C164.509 31.4316 160.46 30.1676 157.617 27.6396C154.773 25.1116 153.35 21.3493 153.35 16.3327C153.243 13.314 153.912 10.3181 155.297 7.63294Z" fill="#C5C5C5"/>
<path d="M172.528 7.63294C173.787 5.3341 175.754 3.50232 178.136 2.40909C180.917 1.19403 183.931 0.604112 186.965 0.680969V5.29257C183.33 5.29257 180.545 6.21424 178.61 8.05752C176.635 9.89431 175.707 12.6494 175.707 16.3031C175.707 19.9569 176.694 22.4552 178.6 24.2031C180.506 25.951 183.311 26.82 186.965 26.82V31.4316C181.741 31.4316 177.692 30.1676 174.848 27.6396C172.004 25.1116 170.611 21.3196 170.611 16.3031C170.499 13.2969 171.159 10.3121 172.528 7.63294Z" fill="#C5C5C5"/>
<path d="M194.489 0.680798V11.6518L203.199 4.31478L208.294 0.0290527V31.4314H203.199V10.4965L194.498 17.8336V31.4017H189.374V0.680798H194.489Z" fill="#C5C5C5"/>
<path d="M215.83 0.680798V11.6518L224.54 4.31478L229.635 0.0290527V31.4314H224.52V10.4965L215.81 17.8336V31.4017H210.695V0.680798H215.83Z" fill="#C5C5C5"/>
</g>
</g>
</g>
</g>
<defs>
<clipPath id="clip0_428_1518">
<rect width="229" height="32" fill="white" transform="translate(0.970215)"/>
</clipPath>
<clipPath id="clip1_428_1518">
<rect width="229" height="32" fill="white" transform="translate(0.970215)"/>
</clipPath>
<clipPath id="clip2_428_1518">
<rect width="229" height="32" fill="white" transform="translate(0.970215)"/>
</clipPath>
</defs>
</svg>
