<svg width="195" height="32" viewBox="0 0 195 32" fill="none" xmlns="http://www.w3.org/2000/svg">
<g clip-path="url(#clip0_428_1494)">
<g clip-path="url(#clip1_428_1494)">
<g clip-path="url(#clip2_428_1494)">
<mask id="mask0_428_1494" style="mask-type:luminance" maskUnits="userSpaceOnUse" x="0" y="0" width="195" height="32">
<path d="M194.657 0.5H0.656738V31.5H194.657V0.5Z" fill="white"/>
</mask>
<g mask="url(#mask0_428_1494)">
<path d="M135.412 6.07387C135.412 7.47363 134.357 8.62568 132.926 8.62568H130.438C129.005 8.6227 127.954 7.47066 127.954 6.07088V4.05922C127.954 2.49531 129.44 1.34326 130.999 1.34326H133.105C134.664 1.34326 135.412 2.49531 135.412 4.05922V6.07387Z" fill="#C5C5C5"/>
<path fill-rule="evenodd" clip-rule="evenodd" d="M14.94 6.88125V15.0679H14.8545C14.2218 12.0237 12.5805 10.1315 8.913 10.1315H8.28034C3.85781 10.1315 1.24463 13.1757 1.24463 18.7719V22.0638C1.24463 27.7405 3.60413 30.8683 8.02666 30.8683H8.70518C12.2016 30.8683 14.014 28.7702 14.8575 26.096H14.94V28.3187C14.94 29.7184 15.9945 30.8705 17.4249 30.8705H19.9128C21.3462 30.8675 22.3975 29.7154 22.3975 28.3157V6.88125C22.3975 5.31732 21.3034 4.16528 19.7447 4.16528H17.6389C16.0801 4.16528 14.94 5.31732 14.94 6.88125ZM8.28496 20.5059C8.28496 22.9741 9.3394 24.0039 11.867 24.0039C14.3946 24.0039 15.449 22.9741 15.449 20.5059C15.449 18.0376 14.3946 17.008 11.867 17.008C9.3394 17.008 8.28496 18.0376 8.28496 20.5059Z" fill="#C5C5C5"/>
<path fill-rule="evenodd" clip-rule="evenodd" d="M24.0195 19.2275V21.7793C24.0195 27.3336 27.6413 30.8703 33.7509 30.8703H35.5206C41.6303 30.8703 45.252 27.3336 45.252 21.7793V19.2275C45.252 13.6732 41.6303 10.1365 35.5206 10.1365H33.7509C27.6444 10.1365 24.0195 13.6732 24.0195 19.2275ZM34.6373 23.9998C32.1097 23.9998 31.0553 22.9701 31.0553 20.502C31.0553 18.0337 32.1097 17.004 34.6373 17.004C37.1649 17.004 38.2193 18.0337 38.2193 20.502C38.2193 22.9701 37.1649 23.9998 34.6373 23.9998Z" fill="#C5C5C5"/>
<path d="M135.412 28.3148V12.9325C135.412 11.3663 134.271 10.2126 132.712 10.2126H130.606C129.049 10.2126 127.954 11.3663 127.954 12.9325V28.3118C127.954 29.7136 129.005 30.8672 130.438 30.8702H132.926C134.357 30.8702 135.412 29.7166 135.412 28.3148Z" fill="#C5C5C5"/>
<path d="M105.191 13.3125C104.685 11.8766 105.62 10.1334 107.336 10.1333L109.002 10.1337C110.325 10.1337 111.613 10.1338 112.292 12.0391L115.221 20.356C115.712 21.7524 115.869 22.8304 115.851 23.6617H115.919C115.901 22.8304 116.057 21.7524 116.549 20.356L119.478 12.0391C120.157 10.1338 121.445 10.1337 122.768 10.1337L124.434 10.1333C126.149 10.1333 127.085 11.8766 126.579 13.3125L126.303 14.1669L121.722 27.1737C120.902 29.5826 119.147 30.8702 116.547 30.8702H115.225C112.625 30.8702 110.871 29.5826 110.05 27.1737L105.191 13.3125Z" fill="#C5C5C5"/>
<path fill-rule="evenodd" clip-rule="evenodd" d="M96.2799 15.07H96.3655V12.7505C96.3655 11.3508 97.4199 10.1398 98.8502 10.1398H101.338C102.772 10.1428 103.823 11.3538 103.823 12.7535V28.235C103.823 29.6348 102.772 30.7869 101.338 30.7899H98.8502C97.4199 30.7899 96.3655 29.6378 96.3655 28.238V26.0981H96.2829C95.4393 28.7722 93.6269 30.8703 90.1304 30.8703H89.452C85.0294 30.8703 82.6699 27.7426 82.6699 22.0659V18.7739C82.6699 13.1778 85.2831 10.1335 89.7056 10.1335H90.3383C94.0059 10.1335 95.6472 12.0258 96.2799 15.07ZM89.7423 20.5209C89.7423 22.9891 90.7967 24.0189 93.3244 24.0189C95.8519 24.0189 96.9063 22.9891 96.9063 20.5209C96.9063 18.0526 95.8519 17.023 93.3244 17.023C90.7967 17.023 89.7423 18.0526 89.7423 20.5209Z" fill="#C5C5C5"/>
<path fill-rule="evenodd" clip-rule="evenodd" d="M186.415 15.0701H186.33C185.698 12.0258 184.056 10.1335 180.388 10.1335H179.755C175.333 10.1335 172.72 13.1778 172.72 18.7739V22.0659C172.72 27.7425 175.079 30.8703 179.502 30.8703H180.181C183.677 30.8703 185.49 28.7722 186.333 26.0981H186.415V28.238C186.415 29.6378 187.47 30.7898 188.901 30.7898H191.388C192.822 30.7869 193.873 29.6348 193.873 28.235V12.7535C193.873 11.3538 192.822 10.1428 191.388 10.1398H188.901C187.47 10.1398 186.415 11.3508 186.415 12.7505V15.0701ZM183.374 24.0189C180.847 24.0189 179.792 22.9891 179.792 20.5209C179.792 18.0526 180.847 17.023 183.374 17.023C185.902 17.023 186.957 18.0526 186.957 20.5209C186.957 22.9891 185.902 24.0189 183.374 24.0189Z" fill="#C5C5C5"/>
<path d="M76.0356 6.7236C76.0356 5.32545 74.9346 4.16528 73.5583 4.16528H71.3258C69.9188 4.16528 68.7567 5.32545 68.7567 6.7236V10.1269H67.6068C66.0481 10.1269 64.9937 11.2372 64.9937 12.5952V14.5782C64.9937 15.9362 65.9625 17.0465 67.775 17.0465H68.7567L68.7894 22.0657C68.7894 27.7424 71.1489 30.8702 75.5715 30.8702H78.656C80.2575 30.8702 81.4373 29.8504 81.4373 28.4558L81.4195 26.3798C81.4195 24.9853 80.2041 24.0064 78.6381 24.0064C76.3013 24.0064 76.079 23.0779 76.018 20.9801L76.0356 17.0465H78.6381C80.4506 17.0465 81.4194 15.9362 81.4194 14.5782V12.5952C81.4194 11.2372 80.365 10.1269 78.8063 10.1269H76.0356V6.7236Z" fill="#C5C5C5"/>
<path d="M163.631 4.16528C165.007 4.16528 166.108 5.32545 166.108 6.72361V10.127H168.878C170.438 10.127 171.492 11.2372 171.492 12.5952V14.5782C171.492 15.9362 170.523 17.0465 168.71 17.0465H166.108L166.091 20.9801C166.152 23.0779 166.374 24.0064 168.71 24.0064C170.276 24.0064 171.492 24.9853 171.492 26.3798L171.51 28.456C171.51 29.8504 170.329 30.8702 168.728 30.8702H165.644C161.221 30.8702 158.862 27.7424 158.862 22.0657L158.829 17.0465H157.848C156.035 17.0465 155.066 15.9362 155.066 14.5782V12.5952C155.066 11.2372 156.12 10.127 157.679 10.127H158.829V6.72361C158.829 5.32545 159.991 4.16528 161.398 4.16528H163.631Z" fill="#C5C5C5"/>
<path d="M52.438 21.0979C48.7806 20.2658 46.519 18.787 46.519 15.6441C46.519 12.0239 49.387 10.0925 54.2319 10.0925L57.4437 10.0946H60.9469C62.7564 10.0946 63.7238 11.2095 63.7238 12.5731V14.5152C63.7238 15.8789 62.7564 16.9937 60.9469 16.9937L56.7946 16.9792C55.9892 16.9792 55.5521 17.2381 55.4011 17.8366C55.0963 19.0455 56.8632 19.4549 58.6642 19.8647C62.2966 20.6912 64.5919 22.1757 64.5919 25.3186C64.5919 28.9387 61.7239 30.8701 56.8788 30.8701L53.667 30.8681H49.6715C47.8619 30.8681 46.8946 29.7532 46.8946 28.3896V26.4475C46.8946 25.0838 47.8619 23.9689 49.6715 23.9689L54.3161 23.9835C55.1216 23.9835 55.5587 23.7246 55.7096 23.1261C56.0145 21.9172 54.239 21.5077 52.438 21.0979Z" fill="#C5C5C5"/>
<path d="M142.557 21.0982C138.9 20.2661 136.638 18.7873 136.638 15.6443C136.638 12.0242 139.506 10.0928 144.351 10.0928L147.563 10.0949H151.066C152.875 10.0949 153.843 11.2097 153.843 12.5734V14.5155C153.843 15.8791 152.875 16.9941 151.066 16.9941L146.914 16.9794C146.109 16.9794 145.671 17.2383 145.52 17.8368C145.215 19.0457 146.982 19.4552 148.784 19.865C152.415 20.6915 154.711 22.1759 154.711 25.3188C154.711 28.9391 151.843 30.8704 146.998 30.8704L143.785 30.8683H139.79C137.981 30.8683 137.013 29.7534 137.013 28.3898V26.4477C137.013 25.084 137.981 23.9692 139.79 23.9692L144.436 23.9838C145.241 23.9838 145.677 23.7249 145.829 23.1263C146.133 21.9174 144.358 21.508 142.557 21.0982Z" fill="#C5C5C5"/>
</g>
</g>
</g>
</g>
<defs>
<clipPath id="clip0_428_1494">
<rect width="194" height="31" fill="white" transform="translate(0.656738 0.5)"/>
</clipPath>
<clipPath id="clip1_428_1494">
<rect width="194" height="31" fill="white" transform="translate(0.656738 0.5)"/>
</clipPath>
<clipPath id="clip2_428_1494">
<rect width="194" height="31" fill="white" transform="translate(0.656738 0.5)"/>
</clipPath>
</defs>
</svg>
