<svg width="41" height="40" viewBox="0 0 41 40" fill="none" xmlns="http://www.w3.org/2000/svg">
<g clip-path="url(#clip0_428_1581)">
<path fill-rule="evenodd" clip-rule="evenodd" d="M22.6102 1.3728L40.3266 8.63655V31.1891L22.5975 38.6353L11.6011 33.748L12.1813 32.4425L21.8912 36.7581V16.8923L6.14293 9.87576V22.0408H4.71436V8.28111L13.7598 4.87789L22.6102 1.3728ZM14.0016 6.31324L7.30888 8.8313L22.6106 15.6489L29.288 12.7777L14.0016 6.31324ZM30.3946 13.8568L23.3198 16.899V36.7825L38.898 30.2396V10.2004L31.8232 13.2426V16.7688H30.3946V13.8568ZM37.7677 9.13137L31.1066 11.9957L15.9022 5.56593L22.6009 2.91299L37.7677 9.13137Z" fill="#333333"/>
<path d="M6.28351 31.2113L9.12342 26.8163L7.92354 26.0409L6.14807 28.7887L4.79076 27.1286L3.68478 28.0328L6.28351 31.2113Z" fill="#333333"/>
<path fill-rule="evenodd" clip-rule="evenodd" d="M0.666504 28.6395C0.666504 25.446 3.25534 22.8572 6.44882 22.8572C9.64227 22.8572 12.2311 25.446 12.2311 28.6395C12.2311 31.8329 9.64228 34.4218 6.44882 34.4218C3.25533 34.4218 0.666504 31.8329 0.666504 28.6395ZM6.44882 24.2857C4.04431 24.2857 2.09508 26.235 2.09508 28.6395C2.09508 31.044 4.04432 32.9932 6.44882 32.9932C8.8533 32.9932 10.8026 31.044 10.8026 28.6395C10.8026 26.235 8.85331 24.2857 6.44882 24.2857Z" fill="#333333"/>
</g>
<defs>
<clipPath id="clip0_428_1581">
<rect width="40" height="40" fill="white" transform="translate(0.666504)"/>
</clipPath>
</defs>
</svg>
