<svg width="32" height="32" viewBox="0 0 32 32" fill="none" xmlns="http://www.w3.org/2000/svg">
<g clip-path="url(#clip0_301_95)">
<path fill-rule="evenodd" clip-rule="evenodd" d="M5.58982 0.316302C6.53431 -0.307529 7.70402 0.0420663 8.30518 0.883061L12.3309 6.51472C12.9498 7.38047 12.869 8.58503 12.1318 9.3543L9.55805 12.0399C9.57033 12.0695 9.58352 12.1008 9.59766 12.1338C9.73071 12.4443 9.94809 12.9053 10.2789 13.4865C10.9404 14.6485 12.0566 16.2928 13.8618 18.1765C15.6672 20.0603 17.2418 21.2237 18.3525 21.9123C18.9081 22.2566 19.3483 22.4826 19.6439 22.6205C19.6594 22.6278 19.6746 22.6348 19.6893 22.6416L22.2381 19.9822C22.9855 19.202 24.1826 19.1083 25.0366 19.7731L30.4335 23.9738C31.2441 24.6048 31.5481 25.786 30.9757 26.7297C29.8016 28.6651 27.7048 30.9366 23.6519 31.8201C21.0935 32.3777 18.3658 31.5928 15.7498 30.1217C13.1253 28.6458 10.533 26.4354 8.2008 24.0018C5.86801 21.5676 3.7517 18.8644 2.33981 16.1306C0.931691 13.404 0.189522 10.5784 0.718212 7.93731C1.55979 3.73332 3.72549 1.54769 5.58982 0.316302ZM19.8547 23.4324C19.6406 24.0637 19.64 24.0636 19.64 24.0636L19.638 24.0629L19.6344 24.0616L19.6242 24.0581C19.616 24.0552 19.6052 24.0513 19.5918 24.0463C19.5649 24.0364 19.5276 24.0222 19.4802 24.0033C19.3856 23.9654 19.251 23.9085 19.0801 23.8288C18.7384 23.6693 18.2518 23.4185 17.6501 23.0455C16.4461 22.2993 14.7837 21.0654 12.8992 19.0991C11.0149 17.1329 9.83367 15.3994 9.1202 14.1461C8.76357 13.5196 8.52407 13.0136 8.37211 12.659C8.29613 12.4817 8.24204 12.3422 8.20614 12.2445C8.18819 12.1957 8.17479 12.1572 8.16547 12.1297C8.16082 12.116 8.15718 12.105 8.1545 12.0967L8.1512 12.0865L8.15008 12.083L8.14965 12.0816C8.14965 12.0816 8.14931 12.0805 8.78581 11.8822L8.14931 12.0805C8.07713 11.8488 8.13657 11.5962 8.30448 11.4209L11.1691 8.43176C11.4587 8.12963 11.4955 7.63887 11.2462 7.2901L7.22049 1.65844C6.97147 1.31008 6.58165 1.25912 6.32467 1.42886C4.70702 2.49731 2.78646 4.39827 2.02561 8.19903C1.58008 10.4247 2.18697 12.9289 3.52449 15.5188C4.85823 18.1013 6.88414 20.7009 9.16344 23.0792C11.4434 25.4583 13.933 27.5704 16.4033 28.9595C18.8822 30.3535 21.2624 30.9763 23.368 30.5173C26.9864 29.7285 28.8057 27.736 29.8357 26.0382M19.8547 23.4324L19.64 24.0636C19.8852 24.1467 20.1569 24.0806 20.336 23.8937L23.2008 20.9046C23.4797 20.6134 23.9079 20.5842 24.2176 20.8252L29.6145 25.0259C29.9437 25.2822 30.0238 25.7281 29.8357 26.0382" fill="#333333"/>
</g>
<defs>
<clipPath id="clip0_301_95">
<rect width="32" height="32" fill="white"/>
</clipPath>
</defs>
</svg>
