<svg width="32" height="32" viewBox="0 0 32 32" fill="none" xmlns="http://www.w3.org/2000/svg">
<g clip-path="url(#clip0_301_91)">
<path d="M16 0C7.17169 0 0 7.17169 0 16C0 24.8283 7.17169 32 16 32C24.8283 32 32 24.8283 32 16C32 7.17169 24.8283 0 16 0ZM16 1.3913C24.0764 1.3913 30.6087 7.92362 30.6087 16C30.6087 24.0764 24.0764 30.6087 16 30.6087C7.92362 30.6087 1.3913 24.0764 1.3913 16C1.3913 7.92362 7.92362 1.3913 16 1.3913ZM22.322 8.37231C21.8462 8.37231 21.3115 8.4825 20.6861 8.7079C19.715 9.05781 8.29266 13.9076 6.99318 14.4593C6.25025 14.7751 4.86685 15.3626 4.86685 16.7636C4.86685 17.6923 5.41103 18.3565 6.48234 18.7391C7.05837 18.9443 8.42636 19.359 9.2201 19.5775C9.5568 19.67 9.91457 19.7174 10.2826 19.7174C11.0026 19.7174 11.7272 19.538 12.2948 19.2215C12.2899 19.3384 12.2931 19.4565 12.3071 19.5747C12.3926 20.3052 12.8431 20.9922 13.5109 21.413C13.9478 21.6885 17.516 24.0794 18.0489 24.4593C18.7974 24.9942 19.6249 25.2771 20.4402 25.2771C21.9985 25.2771 22.5213 23.6682 22.7731 22.8954C23.1383 21.7733 24.5059 12.6484 24.6603 11.0394C24.7654 9.93676 24.3058 9.02887 23.4307 8.61009C23.103 8.45217 22.729 8.37231 22.322 8.37231ZM22.322 9.76362C22.5133 9.76362 22.6841 9.7952 22.8288 9.86546C23.1578 10.0234 23.3252 10.3754 23.2744 10.9076C23.1061 12.6627 21.7418 21.5715 21.4511 22.4647C21.202 23.2285 20.9397 23.8858 20.4402 23.8858C19.9407 23.8858 19.3951 23.7108 18.8573 23.3261C18.3196 22.9421 14.7487 20.5474 14.2527 20.2351C13.8179 19.961 13.3578 19.2777 14.0054 18.6168C14.539 18.0728 18.5863 14.1446 18.932 13.7989C19.1894 13.5408 19.0691 13.2296 18.8166 13.2296C18.7296 13.2296 18.6255 13.2663 18.5176 13.3546C18.0947 13.7004 12.1981 17.6461 11.6875 17.9633C11.3494 18.1734 10.8259 18.3247 10.2826 18.3247C10.0509 18.3247 9.81642 18.297 9.59103 18.2351C8.80633 18.0187 7.4784 17.6158 6.95109 17.428C6.44396 17.2471 6.25951 17.0739 6.25951 16.7636C6.25951 16.3226 6.88205 16.0181 7.53802 15.7391C8.23089 15.4449 20.2199 10.3537 21.1576 10.0163C21.5917 9.85906 21.9888 9.76362 22.322 9.76362Z" fill="#333333"/>
</g>
<defs>
<clipPath id="clip0_301_91">
<rect width="32" height="32" fill="white"/>
</clipPath>
</defs>
</svg>
