<svg width="32" height="32" viewBox="0 0 32 32" fill="none" xmlns="http://www.w3.org/2000/svg">
<g clip-path="url(#clip0_301_93)">
<path d="M16 0C7.17183 0 0 7.17183 0 16C0 18.8376 0.778219 21.4858 2.07609 23.7976L0.0258152 31.1169C-0.00693978 31.2339 -0.00841975 31.3576 0.0215229 31.4755C0.0514655 31.5934 0.111784 31.7014 0.196466 31.7887C0.281147 31.876 0.387232 31.9395 0.504143 31.973C0.621054 32.0065 0.74471 32.0088 0.862769 31.9796L8.49454 30.0883C10.7371 31.2855 13.2818 32 16 32C24.8282 32 32 24.8282 32 16C32 7.17183 24.8282 0 16 0ZM16 1.3913C24.0762 1.3913 30.6087 7.92383 30.6087 16C30.6087 24.0762 24.0762 30.6087 16 30.6087C13.4108 30.6087 10.9858 29.9336 8.8777 28.7541C8.72355 28.6679 8.54233 28.6436 8.37092 28.6861L1.6875 30.3424L3.47962 23.9484C3.50527 23.858 3.51234 23.7634 3.50044 23.6702C3.48853 23.577 3.45787 23.4872 3.41032 23.4063C2.12918 21.2338 1.3913 18.7062 1.3913 16C1.3913 7.92383 7.92383 1.3913 16 1.3913ZM10.1862 7.65217C9.74017 7.65217 9.1033 7.81809 8.58017 8.38177C8.26595 8.72035 6.95652 9.99617 6.95652 12.2392C6.95652 14.5776 8.57837 16.5953 8.77447 16.8546H8.77579V16.856C8.75722 16.8315 9.0247 17.2189 9.38177 17.6834C9.73885 18.148 10.2382 18.758 10.8655 19.4185C12.1201 20.7394 13.884 22.266 16.0734 23.1997C17.0816 23.6291 17.877 23.8883 18.4797 24.0774C19.5964 24.4281 20.6136 24.3748 21.3777 24.2623C21.9496 24.178 22.5787 23.9034 23.2011 23.5095C23.8235 23.1156 24.4335 22.6259 24.7025 21.8818C24.8952 21.3483 24.9931 20.8554 25.0285 20.4497C25.0463 20.2469 25.0485 20.0679 25.0353 19.9022C25.0221 19.7364 25.0362 19.6095 24.8818 19.356C24.5579 18.8242 24.1912 18.8104 23.8084 18.6209C23.5958 18.5157 22.9904 18.22 22.3832 17.9307C21.7766 17.6417 21.2514 17.3857 20.928 17.2704C20.7236 17.1969 20.4742 17.0911 20.1142 17.1318C19.7542 17.1726 19.3986 17.4323 19.1916 17.7391C18.9953 18.03 18.2055 18.9623 17.9647 19.2364C17.9615 19.2344 17.9824 19.2441 17.8872 19.197C17.5894 19.0496 17.2252 18.9243 16.6861 18.6399C16.1471 18.3556 15.4729 17.9357 14.735 17.2854V17.284C13.6369 16.3171 12.8677 15.1034 12.625 14.6957C12.6413 14.6762 12.623 14.6998 12.6576 14.6657L12.659 14.6644C12.907 14.4201 13.1267 14.1283 13.3125 13.9144C13.5759 13.6111 13.692 13.3436 13.8179 13.0938C14.0689 12.5958 13.9291 12.0478 13.784 11.7595V11.7581C13.794 11.7781 13.7055 11.5827 13.6101 11.3574C13.5144 11.1313 13.3925 10.8383 13.2623 10.5258C13.0017 9.90087 12.711 9.19993 12.538 8.78943V8.78804C12.3343 8.30449 12.0587 7.9561 11.6984 7.78804C11.338 7.61997 11.0197 7.66776 11.0068 7.66713H11.0054C10.7483 7.65523 10.4661 7.65217 10.1862 7.65217ZM10.1862 9.04348C10.4543 9.04348 10.7187 9.04675 10.9402 9.05704C11.1681 9.06845 11.1539 9.06936 11.1101 9.0489C11.0655 9.02817 11.1259 9.02143 11.2554 9.32883C11.4248 9.73078 11.717 10.4342 11.9783 11.0611C12.1089 11.3746 12.2312 11.6687 12.3288 11.8995C12.4264 12.1302 12.4794 12.259 12.5407 12.3818V12.3832L12.5421 12.3845C12.6023 12.5033 12.597 12.4273 12.5761 12.4687C12.4293 12.7601 12.4094 12.8317 12.2609 13.0027C12.0348 13.2632 11.8042 13.5537 11.6821 13.6739C11.5752 13.7789 11.3825 13.9423 11.2623 14.2623C11.1417 14.5827 11.198 15.0223 11.3913 15.3505C11.6487 15.7875 12.497 17.1682 13.8152 18.3288C14.6454 19.0607 15.4189 19.545 16.0367 19.871C16.6545 20.1969 17.1578 20.3872 17.2704 20.4429C17.5377 20.5753 17.8301 20.6781 18.1698 20.6372C18.5096 20.5965 18.8026 20.3903 18.9891 20.1793L18.9905 20.178C19.2387 19.8966 19.9762 19.0544 20.3302 18.5353C20.3452 18.5406 20.3402 18.5365 20.4579 18.5788V18.5802H20.4593C20.513 18.5993 21.1856 18.9004 21.7853 19.1862C22.385 19.4719 22.9938 19.769 23.1916 19.8669C23.477 20.0081 23.6119 20.1001 23.6467 20.1005C23.6491 20.1617 23.6515 20.2281 23.6426 20.3288C23.6183 20.6082 23.5436 20.9949 23.394 21.409C23.3208 21.6116 22.9391 22.0297 22.4579 22.3343C21.9766 22.6388 21.3908 22.8539 21.1739 22.8858C20.5217 22.982 19.7473 23.017 18.8968 22.75C18.307 22.5649 17.5717 22.3253 16.6195 21.9199C14.6886 21.0963 13.0474 19.695 11.875 18.4606C11.2888 17.8434 10.8192 17.2689 10.4851 16.8342C10.1516 16.4004 10.0059 16.1747 9.88452 16.015L9.88313 16.0136C9.66762 15.7286 8.34783 13.8928 8.34783 12.2392C8.34783 10.489 9.1607 9.80271 9.60056 9.32883C9.83144 9.08 10.0839 9.04348 10.1862 9.04348Z" fill="#333333"/>
</g>
<defs>
<clipPath id="clip0_301_93">
<rect width="32" height="32" fill="white"/>
</clipPath>
</defs>
</svg>
